<?xml version="1.0" encoding="UTF-8"?>
<!DOCTYPE svg PUBLIC "-//W3C//DTD SVG 1.1//EN" "http://www.w3.org/Graphics/SVG/1.1/DTD/svg11.dtd">
<svg xmlns="http://www.w3.org/2000/svg" version="1.1" width="200px" height="200px" style="shape-rendering:geometricPrecision; text-rendering:geometricPrecision; image-rendering:optimizeQuality; fill-rule:evenodd; clip-rule:evenodd" xmlns:xlink="http://www.w3.org/1999/xlink">
<g><path style="opacity:0.975" fill="#4cb1fe" d="M 95.5,1.5 C 105.914,0.415958 111.081,5.08262 111,15.5C 112.008,13.741 113.508,12.5743 115.5,12C 128.298,10.5935 132.464,16.0935 128,28.5C 122.114,33.9302 116.447,39.5969 111,45.5C 110.333,57.5 110.333,69.5 111,81.5C 121.638,74.8919 132.472,68.5585 143.5,62.5C 146.012,54.1331 148.845,45.7998 152,37.5C 162.54,31.9192 169.04,34.9192 171.5,46.5C 183.534,44.368 188.367,49.368 186,61.5C 184.5,63 183,64.5 181.5,66C 188.778,69.7788 190.278,75.2788 186,82.5C 183.737,84.5909 181.07,85.9242 178,86.5C 170.468,85.2443 163.135,83.2443 156,80.5C 144.219,86.6394 132.719,93.1394 121.5,100C 132.719,106.861 144.219,113.361 156,119.5C 163.135,116.756 170.468,114.756 178,113.5C 187.764,116.36 190.43,122.36 186,131.5C 184.829,132.893 183.329,133.727 181.5,134C 186.316,138.055 187.816,143.222 186,149.5C 182.161,154.337 177.327,155.67 171.5,153.5C 169.04,165.081 162.54,168.081 152,162.5C 148.791,154.707 146.291,146.707 144.5,138.5C 133.362,131.737 122.195,125.071 111,118.5C 110.333,130.5 110.333,142.5 111,154.5C 116.447,160.403 122.114,166.07 128,171.5C 132.464,183.907 128.298,189.407 115.5,188C 113.508,187.426 112.008,186.259 111,184.5C 112.064,193.086 108.397,197.753 100,198.5C 91.6027,197.753 87.9361,193.086 89,184.5C 87.992,186.259 86.492,187.426 84.5,188C 71.7022,189.407 67.5356,183.907 72,171.5C 77.886,166.07 83.5527,160.403 89,154.5C 89.6667,142.5 89.6667,130.5 89,118.5C 78.4129,125.212 67.5796,131.545 56.5,137.5C 54.44,144.848 52.2733,152.182 50,159.5C 45.2331,166.156 39.3997,167.156 32.5,162.5C 31.1813,159.558 30.0146,156.558 29,153.5C 23.668,155.466 19.0014,154.466 15,150.5C 12.1564,144.171 13.3231,138.838 18.5,134.5C 14.4611,132.427 12.4611,129.093 12.5,124.5C 12.3683,117.463 15.8683,113.797 23,113.5C 30.436,115.089 37.7693,117.089 45,119.5C 56.3755,113.48 67.5422,106.98 78.5,100C 67.5422,93.0202 56.3755,86.5202 45,80.5C 37.7693,82.9108 30.436,84.9108 23,86.5C 13.0134,84.2765 10.0134,78.2765 14,68.5C 15.586,67.624 17.086,66.624 18.5,65.5C 16.6585,64.1576 15.1585,62.4909 14,60.5C 13.3333,57.5 13.3333,54.5 14,51.5C 17.5908,45.6894 22.5908,44.0228 29,46.5C 30.6052,35.9642 36.4385,32.4642 46.5,36C 47.7875,37.4095 48.9542,38.9095 50,40.5C 52.2733,47.8185 54.44,55.1518 56.5,62.5C 67.5796,68.4549 78.4129,74.7882 89,81.5C 89.6667,69.5 89.6667,57.5 89,45.5C 83.5527,39.5969 77.886,33.9302 72,28.5C 67.5356,16.0935 71.7022,10.5935 84.5,12C 86.492,12.5743 87.992,13.741 89,15.5C 88.2527,9.33424 90.4194,4.66758 95.5,1.5 Z"/></g>
</svg>
