<?xml version="1.0" encoding="UTF-8"?>
<!DOCTYPE svg PUBLIC "-//W3C//DTD SVG 1.1//EN" "http://www.w3.org/Graphics/SVG/1.1/DTD/svg11.dtd">
<svg xmlns="http://www.w3.org/2000/svg" version="1.1" width="414px" height="85px" style="shape-rendering:geometricPrecision; text-rendering:geometricPrecision; image-rendering:optimizeQuality; fill-rule:evenodd; clip-rule:evenodd" xmlns:xlink="http://www.w3.org/1999/xlink">
<g><path style="opacity:0.999" fill="#63b8fe" d="M 39.5,5.5 C 39.7856,7.93268 40.4523,7.93268 41.5,5.5C 44.8648,4.96384 46.8648,6.29717 47.5,9.5C 45.5969,12.9114 43.0969,15.9114 40,18.5C 39.1864,23.0204 39.353,27.3537 40.5,31.5C 42.0269,31.573 43.0269,30.9063 43.5,29.5C 45.1815,27.9925 47.1815,26.9925 49.5,26.5C 52.4841,26.2132 53.8174,24.5465 53.5,21.5C 53.131,15.8615 55.4644,13.5282 60.5,14.5C 61.038,16.1172 61.3713,17.7839 61.5,19.5C 65.938,18.4251 67.938,20.0917 67.5,24.5C 68.1465,26.1561 68.8131,27.8228 69.5,29.5C 69.4712,31.0293 68.8045,32.196 67.5,33C 63.8303,33.6382 60.3303,33.1382 57,31.5C 53.471,34.1698 49.6377,36.1698 45.5,37.5C 43.0673,38.5477 43.0673,39.2144 45.5,39.5C 49.2063,41.6972 53.0396,43.6972 57,45.5C 59.4604,44.6866 61.9604,44.0199 64.5,43.5C 65.7261,43.5195 66.7261,43.8529 67.5,44.5C 68.038,46.1172 68.3713,47.7839 68.5,49.5C 68.2088,52.037 68.0422,54.7037 68,57.5C 67.6174,58.056 67.1174,58.3893 66.5,58.5C 64.8333,58.5 63.1667,58.5 61.5,58.5C 61.5,59.5 61.5,60.5 61.5,61.5C 59.9346,63.7188 57.9346,64.0521 55.5,62.5C 53.883,59.7204 52.7163,56.7204 52,53.5C 49.5574,51.6991 47.0574,50.0324 44.5,48.5C 44.0269,47.0937 43.0269,46.427 41.5,46.5C 40.2057,48.0478 39.5391,50.0478 39.5,52.5C 39.2893,55.4859 39.956,58.1526 41.5,60.5C 41.5,62.5 42.5,63.5 44.5,63.5C 44.427,65.0269 45.0937,66.0269 46.5,66.5C 47.9302,68.4547 47.5969,70.1214 45.5,71.5C 43.2589,71.0461 41.2589,71.0461 39.5,71.5C 39.67,72.8221 39.3366,73.9887 38.5,75C 36.2884,75.7891 34.2884,75.6225 32.5,74.5C 32.6602,72.8008 32.4935,71.1341 32,69.5C 31.2828,70.0442 30.7828,70.7109 30.5,71.5C 26.0559,73.2467 24.0559,71.5801 24.5,66.5C 25.5,66.1667 26.1667,65.5 26.5,64.5C 27.5,64.1667 28.1667,63.5 28.5,62.5C 28.8564,60.8102 29.8564,59.8102 31.5,59.5C 32.8124,54.9848 32.8124,50.3181 31.5,45.5C 30.8933,45.6236 30.56,45.9569 30.5,46.5C 26.6923,48.5729 23.0256,50.9062 19.5,53.5C 18.8391,56.9919 17.5058,60.1586 15.5,63C 12.6248,63.9613 10.6248,63.128 9.5,60.5C 8.44787,58.744 6.78121,58.0773 4.5,58.5C 1.88622,56.4098 1.88622,54.2431 4.5,52C 1.83333,49.3333 1.83333,46.6667 4.5,44C 7.94442,43.5311 11.2778,44.0311 14.5,45.5C 16.7033,44.2326 19.0367,43.2326 21.5,42.5C 23.0269,42.573 24.0269,41.9063 24.5,40.5C 24.8417,39.6618 25.5084,39.3284 26.5,39.5C 27.7574,38.3774 27.4241,37.7107 25.5,37.5C 25.0269,36.0937 24.0269,35.427 22.5,35.5C 19.6575,34.8277 17.1575,33.4944 15,31.5C 11.2285,33.2273 7.39514,33.5606 3.5,32.5C 3.32526,30.3792 3.65859,28.3792 4.5,26.5C 1.08688,21.4972 2.42022,18.8306 8.5,18.5C 9.90632,18.0269 10.573,17.0269 10.5,15.5C 11.6591,13.6231 13.3258,13.1231 15.5,14C 17.6462,16.7948 18.8128,19.9614 19,23.5C 23.2797,26.0525 27.4464,28.7192 31.5,31.5C 32.1633,29.3587 32.4966,27.0254 32.5,24.5C 32.4714,21.7305 31.8048,19.3972 30.5,17.5C 30.5,15.5 29.5,14.5 27.5,14.5C 24.6676,12.5935 23.8343,9.92681 25,6.5C 26.3561,5.61983 27.8561,5.28649 29.5,5.5C 30.172,6.26739 31.0053,6.93406 32,7.5C 32.3519,5.75251 32.8519,4.08584 33.5,2.5C 34.9464,1.38705 36.6131,1.22039 38.5,2C 39.3366,3.01127 39.67,4.17793 39.5,5.5 Z"/></g>
<g><path style="opacity:0.518" fill="#bde2fe" d="M 33.5,2.5 C 32.8519,4.08584 32.3519,5.75251 32,7.5C 31.0053,6.93406 30.172,6.26739 29.5,5.5C 30.8333,4.5 32.1667,3.5 33.5,2.5 Z"/></g>
<g><path style="opacity:0.282" fill="#d0eaff" d="M 39.5,5.5 C 40.1667,5.5 40.8333,5.5 41.5,5.5C 40.4523,7.93268 39.7856,7.93268 39.5,5.5 Z"/></g>
<g><path style="opacity:0.729" fill="#acd9fe" d="M 214.5,13.5 C 211.763,13.4013 209.096,13.7347 206.5,14.5C 207.492,12.9735 208.992,12.3068 211,12.5C 212.385,12.5143 213.551,12.8476 214.5,13.5 Z"/></g>
<g><path style="opacity:1" fill="#6bbbfe" d="M 214.5,13.5 C 214.833,14.5 215.5,15.1667 216.5,15.5C 219.038,18.0033 219.038,20.6699 216.5,23.5C 208.465,27.8686 204.632,25.5352 205,16.5C 205.278,15.5842 205.778,14.9175 206.5,14.5C 209.096,13.7347 211.763,13.4013 214.5,13.5 Z"/></g>
<g><path style="opacity:0.012" fill="#d3eafe" d="M 214.5,13.5 C 215.833,13.5 216.5,14.1667 216.5,15.5C 215.5,15.1667 214.833,14.5 214.5,13.5 Z"/></g>
<g><path style="opacity:1" fill="#6fbcfe" d="M 343.5,12.5 C 348.995,11.411 352.329,13.5777 353.5,19C 351.194,25.663 347.027,27.163 341,23.5C 338.6,18.9898 339.433,15.3231 343.5,12.5 Z"/></g>
<g><path style="opacity:0.616" fill="#c9e6fe" d="M 27.5,14.5 C 29.5,14.5 30.5,15.5 30.5,17.5C 29.1667,16.8333 28.1667,15.8333 27.5,14.5 Z"/></g>
<g><path style="opacity:0.282" fill="#c9e7fe" d="M 142.5,15.5 C 129.167,15.5 115.833,15.5 102.5,15.5C 102.5,17.5 102.5,19.5 102.5,21.5C 104.099,21.2322 105.432,21.5655 106.5,22.5C 104.833,22.5 103.167,22.5 101.5,22.5C 101.5,19.8333 101.5,17.1667 101.5,14.5C 115.344,14.171 129.01,14.5043 142.5,15.5 Z"/></g>
<g><path style="opacity:1" fill="#68b9fe" d="M 407.5,48.5 C 405.167,48.5 402.833,48.5 400.5,48.5C 400.784,46.5853 400.451,44.9187 399.5,43.5C 398.223,35.1823 397.39,26.849 397,18.5C 400.86,12.4104 405.193,12.0771 410,17.5C 410.167,19 410.333,20.5 410.5,22C 409.116,30.7996 408.116,39.633 407.5,48.5 Z"/></g>
<g><path style="opacity:1" fill="#55b4fe" d="M 142.5,15.5 C 142.12,17.698 142.787,19.3646 144.5,20.5C 145.538,23.7768 146.871,26.9434 148.5,30C 147.437,31.1882 146.103,31.6882 144.5,31.5C 143.167,31.5 141.833,31.5 140.5,31.5C 139.599,30.7095 138.932,29.7095 138.5,28.5C 138.167,26.1667 136.833,24.8333 134.5,24.5C 133.041,24.5674 131.708,24.2341 130.5,23.5C 127.038,22.5184 123.371,22.185 119.5,22.5C 119.183,26.7016 119.517,30.7016 120.5,34.5C 122.621,34.6747 124.621,34.3414 126.5,33.5C 127.451,32.0813 127.784,30.4147 127.5,28.5C 129.5,28.5 131.5,28.5 133.5,28.5C 133.5,35.1667 133.5,41.8333 133.5,48.5C 131.5,48.5 129.5,48.5 127.5,48.5C 127.975,45.9179 127.308,43.9179 125.5,42.5C 123.735,41.5386 121.735,41.2053 119.5,41.5C 119.182,46.0323 119.515,50.3656 120.5,54.5C 122.435,55.1495 124.435,55.4828 126.5,55.5C 128.857,55.6633 131.19,55.4966 133.5,55C 134.056,54.6174 134.389,54.1174 134.5,53.5C 134.833,53.5 135.167,53.5 135.5,53.5C 138.167,52.8333 139.833,51.1667 140.5,48.5C 141.906,48.0269 142.573,47.0269 142.5,45.5C 142.5,45.1667 142.5,44.8333 142.5,44.5C 143.167,44.1667 143.833,43.8333 144.5,43.5C 145.959,43.4326 147.292,43.7659 148.5,44.5C 148.833,45.1667 149.167,45.8333 149.5,46.5C 148.428,51.7145 146.762,56.7145 144.5,61.5C 130.579,62.4818 116.579,62.8151 102.5,62.5C 102.5,60.5 102.5,58.5 102.5,56.5C 103.167,56.5 103.833,56.5 104.5,56.5C 106.179,56.7148 107.179,56.0481 107.5,54.5C 107.809,43.7517 107.476,33.085 106.5,22.5C 105.432,21.5655 104.099,21.2322 102.5,21.5C 102.5,19.5 102.5,17.5 102.5,15.5C 115.833,15.5 129.167,15.5 142.5,15.5 Z"/></g>
<g><path style="opacity:0.745" fill="#badefe" d="M 10.5,15.5 C 10.573,17.0269 9.90632,18.0269 8.5,18.5C 8.42702,16.9731 9.09368,15.9731 10.5,15.5 Z"/></g>
<g><path style="opacity:1" fill="#64b8fe" d="M 369.5,17.5 C 371.833,17.5 374.167,17.5 376.5,17.5C 376.185,21.3714 376.518,25.0381 377.5,28.5C 381.167,28.5 384.833,28.5 388.5,28.5C 388.5,31.1667 388.5,33.8333 388.5,36.5C 384.833,36.5 381.167,36.5 377.5,36.5C 377.334,42.1764 377.501,47.8431 378,53.5C 380.887,55.839 384.054,56.1724 387.5,54.5C 388.767,57.0613 388.767,59.728 387.5,62.5C 379.378,66.0908 372.211,64.7575 366,58.5C 365.5,51.1742 365.334,43.8409 365.5,36.5C 363.5,36.5 361.5,36.5 359.5,36.5C 359.337,34.1432 359.503,31.8098 360,29.5C 362.278,28.281 364.445,26.9477 366.5,25.5C 367.906,25.0269 368.573,24.0269 368.5,22.5C 368.629,20.7839 368.962,19.1172 369.5,17.5 Z"/></g>
<g><path style="opacity:0.11" fill="#dff0ff" d="M 369.5,17.5 C 371.948,16.5269 374.615,16.1936 377.5,16.5C 377.5,20.5 377.5,24.5 377.5,28.5C 376.518,25.0381 376.185,21.3714 376.5,17.5C 374.167,17.5 371.833,17.5 369.5,17.5 Z"/></g>
<g><path style="opacity:0.518" fill="#a5d7fe" d="M 30.5,17.5 C 31.8048,19.3972 32.4714,21.7305 32.5,24.5C 32.4966,27.0254 32.1633,29.3587 31.5,31.5C 31.7744,26.737 31.441,22.0704 30.5,17.5 Z"/></g>
<g><path style="opacity:0.933" fill="#99cffe" d="M 60.5,14.5 C 62.1042,15.287 62.7709,16.6203 62.5,18.5C 68.0233,17.6728 69.6899,19.6728 67.5,24.5C 67.938,20.0917 65.938,18.4251 61.5,19.5C 61.3713,17.7839 61.038,16.1172 60.5,14.5 Z"/></g>
<g><path style="opacity:0.902" fill="#b2dafe" d="M 142.5,15.5 C 143.537,16.9303 144.204,18.597 144.5,20.5C 142.787,19.3646 142.12,17.698 142.5,15.5 Z"/></g>
<g><path style="opacity:0.125" fill="#d7edff" d="M 130.5,23.5 C 127.167,23.5 123.833,23.5 120.5,23.5C 120.5,27.1667 120.5,30.8333 120.5,34.5C 119.517,30.7016 119.183,26.7016 119.5,22.5C 123.371,22.185 127.038,22.5184 130.5,23.5 Z"/></g>
<g><path style="opacity:0.769" fill="#c0e1fe" d="M 134.5,24.5 C 136.833,24.8333 138.167,26.1667 138.5,28.5C 136.833,27.5 135.5,26.1667 134.5,24.5 Z"/></g>
<g><path style="opacity:0.435" fill="#bde0fe" d="M 368.5,22.5 C 368.573,24.0269 367.906,25.0269 366.5,25.5C 366.427,23.9731 367.094,22.9731 368.5,22.5 Z"/></g>
<g><path style="opacity:0.851" fill="#a3d3fe" d="M 53.5,21.5 C 53.8174,24.5465 52.4841,26.2132 49.5,26.5C 50.8637,24.8089 52.197,23.1423 53.5,21.5 Z"/></g>
<g><path style="opacity:0.429" fill="#cae7fe" d="M 4.5,26.5 C 3.65859,28.3792 3.32526,30.3792 3.5,32.5C 2.85287,31.7261 2.51954,30.7261 2.5,29.5C 2.63985,27.9704 3.30652,26.9704 4.5,26.5 Z"/></g>
<g><path style="opacity:0.078" fill="#eaf5ff" d="M 133.5,48.5 C 133.5,41.8333 133.5,35.1667 133.5,28.5C 131.5,28.5 129.5,28.5 127.5,28.5C 127.784,30.4147 127.451,32.0813 126.5,33.5C 126.5,31.5 126.5,29.5 126.5,27.5C 129.167,27.5 131.833,27.5 134.5,27.5C 134.825,34.6866 134.491,41.6866 133.5,48.5 Z"/></g>
<g><path style="opacity:1" fill="#5cb6fe" d="M 195.5,56.5 C 195.5,58.5 195.5,60.5 195.5,62.5C 189.167,62.5 182.833,62.5 176.5,62.5C 176.5,60.5 176.5,58.5 176.5,56.5C 177.15,56.1961 177.817,55.8627 178.5,55.5C 179.663,49.8625 179.83,44.1959 179,38.5C 178.311,37.6433 177.478,36.9767 176.5,36.5C 170.676,37.7995 168.343,41.4661 169.5,47.5C 169.833,50.1667 170.167,52.8333 170.5,55.5C 171.183,55.8627 171.85,56.1961 172.5,56.5C 172.5,58.5 172.5,60.5 172.5,62.5C 166.167,62.5 159.833,62.5 153.5,62.5C 153.5,60.5 153.5,58.5 153.5,56.5C 154.708,55.7659 156.041,55.4326 157.5,55.5C 158.49,49.69 158.823,43.69 158.5,37.5C 156.833,37.5 155.167,37.5 153.5,37.5C 153.5,35.1667 153.5,32.8333 153.5,30.5C 155.435,29.8505 157.435,29.5172 159.5,29.5C 162.167,29.1667 164.833,28.8333 167.5,28.5C 167.238,29.9778 167.571,31.3112 168.5,32.5C 169.107,32.3764 169.44,32.0431 169.5,31.5C 171.027,31.573 172.027,30.9063 172.5,29.5C 178.11,26.5504 183.61,26.8837 189,30.5C 189.667,31.8333 190.333,33.1667 191,34.5C 191.5,41.4921 191.666,48.4921 191.5,55.5C 192.959,55.4326 194.292,55.7659 195.5,56.5 Z"/></g>
<g><path style="opacity:0.408" fill="#b4ddfe" d="M 169.5,31.5 C 169.44,32.0431 169.107,32.3764 168.5,32.5C 167.571,31.3112 167.238,29.9778 167.5,28.5C 164.833,28.8333 162.167,29.1667 159.5,29.5C 162.171,27.8819 165.171,27.2153 168.5,27.5C 168.232,29.099 168.566,30.4324 169.5,31.5 Z"/></g>
<g><path style="opacity:1" fill="#5fb7fe" d="M 212.5,28.5 C 213.833,28.5 215.167,28.5 216.5,28.5C 216.5,42.1667 216.5,55.8333 216.5,69.5C 215.598,75.1339 212.265,78.3006 206.5,79C 200.355,80.588 195.189,79.088 191,74.5C 190.167,68.6667 192.667,66.1667 198.5,67C 200.017,68.6851 201.684,70.1851 203.5,71.5C 204.192,70.9747 204.692,70.3081 205,69.5C 205.5,58.8385 205.667,48.1719 205.5,37.5C 203.833,37.5 202.167,37.5 200.5,37.5C 200.5,35.1667 200.5,32.8333 200.5,30.5C 204.557,30.1522 208.557,29.4855 212.5,28.5 Z"/></g>
<g><path style="opacity:0.36" fill="#c2e4ff" d="M 212.5,28.5 C 213.919,27.5489 215.585,27.2155 217.5,27.5C 217.829,41.6766 217.496,55.6766 216.5,69.5C 216.5,55.8333 216.5,42.1667 216.5,28.5C 215.167,28.5 213.833,28.5 212.5,28.5 Z"/></g>
<g><path style="opacity:1" fill="#65b9fe" d="M 258.5,33.5 C 258.738,35.4044 259.738,36.7377 261.5,37.5C 264.436,44.2847 263.936,50.9513 260,57.5C 252.709,64.5056 244.209,66.339 234.5,63C 227.323,59.6545 223.656,53.9878 223.5,46C 224.278,42.8532 225.111,39.6865 226,36.5C 226.383,35.944 226.883,35.6107 227.5,35.5C 229.167,34.5 230.5,33.1667 231.5,31.5C 233.027,31.573 234.027,30.9063 234.5,29.5C 242.014,26.6167 249.348,27.1167 256.5,31C 257.381,31.7083 258.047,32.5416 258.5,33.5 Z M 250.5,49.5 C 249.623,51.7278 248.29,53.7278 246.5,55.5C 239.837,56.0066 236.503,52.8399 236.5,46C 236.445,39.0493 239.778,36.0493 246.5,37C 249.883,40.4437 251.216,44.6104 250.5,49.5 Z"/></g>
<g><path style="opacity:0.627" fill="#a3d6fe" d="M 287.5,28.5 C 287.5,28.8333 287.5,29.1667 287.5,29.5C 280.5,29.5 273.5,29.5 266.5,29.5C 266.5,31.5 266.5,33.5 266.5,35.5C 267.791,35.2627 268.791,35.596 269.5,36.5C 268.167,36.5 266.833,36.5 265.5,36.5C 265.5,33.8333 265.5,31.1667 265.5,28.5C 272.833,28.5 280.167,28.5 287.5,28.5 Z"/></g>
<g><path style="opacity:0.059" fill="#f2f9ff" d="M 287.5,28.5 C 288.473,30.9479 288.806,33.6146 288.5,36.5C 286.517,36.1568 285.183,36.8235 284.5,38.5C 283.596,37.791 283.263,36.791 283.5,35.5C 284.833,35.5 286.167,35.5 287.5,35.5C 287.5,33.5 287.5,31.5 287.5,29.5C 287.5,29.1667 287.5,28.8333 287.5,28.5 Z"/></g>
<g><path style="opacity:0.627" fill="#a7d8fe" d="M 290.5,29.5 C 290.5,29.1667 290.5,28.8333 290.5,28.5C 296.833,28.5 303.167,28.5 309.5,28.5C 309.5,31.1667 309.5,33.8333 309.5,36.5C 308.167,36.5 306.833,36.5 305.5,36.5C 306.209,35.596 307.209,35.2627 308.5,35.5C 308.5,33.5 308.5,31.5 308.5,29.5C 302.5,29.5 296.5,29.5 290.5,29.5 Z"/></g>
<g><path style="opacity:1" fill="#54b3fe" d="M 347.5,28.5 C 348.833,28.5 350.167,28.5 351.5,28.5C 351.173,37.6822 351.507,46.6822 352.5,55.5C 353.959,55.4326 355.292,55.7659 356.5,56.5C 356.5,58.5 356.5,60.5 356.5,62.5C 349.833,62.5 343.167,62.5 336.5,62.5C 336.5,60.5 336.5,58.5 336.5,56.5C 337.708,55.7659 339.041,55.4326 340.5,55.5C 341.49,49.69 341.823,43.69 341.5,37.5C 339.833,37.5 338.167,37.5 336.5,37.5C 336.5,35.5 336.5,33.5 336.5,31.5C 337.791,31.7373 338.791,31.404 339.5,30.5C 342.067,29.525 344.733,28.8583 347.5,28.5 Z"/></g>
<g><path style="opacity:0.455" fill="#aedcfe" d="M 347.5,28.5 C 348.919,27.5489 350.585,27.2155 352.5,27.5C 352.5,36.8333 352.5,46.1667 352.5,55.5C 351.507,46.6822 351.173,37.6822 351.5,28.5C 350.167,28.5 348.833,28.5 347.5,28.5 Z"/></g>
<g><path style="opacity:1" fill="#64b8fe" d="M 287.5,29.5 C 287.5,31.5 287.5,33.5 287.5,35.5C 286.167,35.5 284.833,35.5 283.5,35.5C 283.263,36.791 283.596,37.791 284.5,38.5C 286.09,42.0975 287.59,45.7642 289,49.5C 290.937,45.1834 292.77,40.8501 294.5,36.5C 293.432,35.5655 292.099,35.2322 290.5,35.5C 290.5,33.5 290.5,31.5 290.5,29.5C 296.5,29.5 302.5,29.5 308.5,29.5C 308.5,31.5 308.5,33.5 308.5,35.5C 307.209,35.2627 306.209,35.596 305.5,36.5C 298.881,50.2402 291.881,63.7402 284.5,77C 279.657,79.8348 274.657,80.1681 269.5,78C 265.05,72.9696 265.883,69.1362 272,66.5C 274.437,67.8001 276.937,68.8001 279.5,69.5C 280.906,69.0269 281.573,68.0269 281.5,66.5C 281.33,65.1779 281.663,64.0113 282.5,63C 278.297,54.0943 273.964,45.2609 269.5,36.5C 268.791,35.596 267.791,35.2627 266.5,35.5C 266.5,33.5 266.5,31.5 266.5,29.5C 273.5,29.5 280.5,29.5 287.5,29.5 Z"/></g>
<g><path style="opacity:0.761" fill="#b9defe" d="M 43.5,29.5 C 43.0269,30.9063 42.0269,31.573 40.5,31.5C 40.9731,30.0937 41.9731,29.427 43.5,29.5 Z"/></g>
<g><path style="opacity:0.788" fill="#b0dafe" d="M 172.5,29.5 C 172.027,30.9063 171.027,31.573 169.5,31.5C 169.973,30.0937 170.973,29.427 172.5,29.5 Z"/></g>
<g><path style="opacity:0.773" fill="#b3dbfe" d="M 234.5,29.5 C 234.027,30.9063 233.027,31.573 231.5,31.5C 231.973,30.0937 232.973,29.427 234.5,29.5 Z"/></g>
<g><path style="opacity:0.871" fill="#b5dcfe" d="M 140.5,31.5 C 141.833,31.5 143.167,31.5 144.5,31.5C 143.739,32.3909 142.739,33.0576 141.5,33.5C 140.702,33.0431 140.369,32.3764 140.5,31.5 Z"/></g>
<g><path style="opacity:0.612" fill="#93d0fd" d="M 339.5,30.5 C 338.791,31.404 337.791,31.7373 336.5,31.5C 336.5,33.5 336.5,35.5 336.5,37.5C 336.167,37.5 335.833,37.5 335.5,37.5C 335.5,35.1667 335.5,32.8333 335.5,30.5C 336.833,30.5 338.167,30.5 339.5,30.5 Z"/></g>
<g><path style="opacity:0.639" fill="#b8defe" d="M 231.5,31.5 C 230.5,33.1667 229.167,34.5 227.5,35.5C 227.833,33.1667 229.167,31.8333 231.5,31.5 Z"/></g>
<g><path style="opacity:0.886" fill="#b5dcfe" d="M 258.5,33.5 C 260.262,34.2623 261.262,35.5956 261.5,37.5C 259.738,36.7377 258.738,35.4044 258.5,33.5 Z"/></g>
<g><path style="opacity:0.013" fill="#ecf6ff" d="M 290.5,28.5 C 290.5,28.8333 290.5,29.1667 290.5,29.5C 290.5,31.5 290.5,33.5 290.5,35.5C 292.099,35.2322 293.432,35.5655 294.5,36.5C 292.833,36.5 291.167,36.5 289.5,36.5C 289.194,33.6146 289.527,30.9479 290.5,28.5 Z"/></g>
<g><path style="opacity:0.188" fill="#d6ecfe" d="M 22.5,35.5 C 24.0269,35.427 25.0269,36.0937 25.5,37.5C 23.9731,37.573 22.9731,36.9063 22.5,35.5 Z"/></g>
<g><path style="opacity:0.384" fill="#d9eefe" d="M 25.5,37.5 C 27.4241,37.7107 27.7574,38.3774 26.5,39.5C 26.1667,38.8333 25.8333,38.1667 25.5,37.5 Z"/></g>
<g><path style="opacity:0.008" fill="#ecf6fe" d="M 45.5,37.5 C 45.5,38.1667 45.5,38.8333 45.5,39.5C 43.0673,39.2144 43.0673,38.5477 45.5,37.5 Z"/></g>
<g><path style="opacity:0.267" fill="#d2ebff" d="M 153.5,30.5 C 153.5,32.8333 153.5,35.1667 153.5,37.5C 155.167,37.5 156.833,37.5 158.5,37.5C 158.823,43.69 158.49,49.69 157.5,55.5C 157.5,49.8333 157.5,44.1667 157.5,38.5C 155.833,38.5 154.167,38.5 152.5,38.5C 152.194,35.6146 152.527,32.9479 153.5,30.5 Z"/></g>
<g><path style="opacity:0.518" fill="#b2dcfe" d="M 335.5,37.5 C 335.833,37.5 336.167,37.5 336.5,37.5C 338.167,37.5 339.833,37.5 341.5,37.5C 341.823,43.69 341.49,49.69 340.5,55.5C 340.5,49.8333 340.5,44.1667 340.5,38.5C 338.585,38.7845 336.919,38.4511 335.5,37.5 Z"/></g>
<g><path style="opacity:0.784" fill="#b6dcfe" d="M 24.5,40.5 C 24.0269,41.9063 23.0269,42.573 21.5,42.5C 21.9731,41.0937 22.9731,40.427 24.5,40.5 Z"/></g>
<g><path style="opacity:0.125" fill="#e6f4ff" d="M 125.5,42.5 C 123.833,42.5 122.167,42.5 120.5,42.5C 120.5,46.5 120.5,50.5 120.5,54.5C 119.515,50.3656 119.182,46.0323 119.5,41.5C 121.735,41.2053 123.735,41.5386 125.5,42.5 Z"/></g>
<g><path style="opacity:0.145" fill="#e1f2ff" d="M 144.5,43.5 C 143.833,43.8333 143.167,44.1667 142.5,44.5C 142.711,42.5759 143.377,42.2426 144.5,43.5 Z"/></g>
<g><path style="opacity:0.051" fill="#e5f3ff" d="M 148.5,44.5 C 150.424,44.7107 150.757,45.3774 149.5,46.5C 149.167,45.8333 148.833,45.1667 148.5,44.5 Z"/></g>
<g><path style="opacity:0.518" fill="#a6d8fe" d="M 30.5,46.5 C 30.56,45.9569 30.8933,45.6236 31.5,45.5C 32.8124,50.3181 32.8124,54.9848 31.5,59.5C 31.8182,54.9677 31.4849,50.6344 30.5,46.5 Z"/></g>
<g><path style="opacity:0.071" fill="#e1f1fe" d="M 125.5,42.5 C 127.308,43.9179 127.975,45.9179 127.5,48.5C 126.715,46.6264 126.048,44.6264 125.5,42.5 Z"/></g>
<g><path style="opacity:0.075" fill="#e5f3fe" d="M 67.5,44.5 C 69.5969,45.8786 69.9302,47.5453 68.5,49.5C 68.3713,47.7839 68.038,46.1172 67.5,44.5 Z"/></g>
<g><path style="opacity:0.196" fill="#d7ecff" d="M 41.5,46.5 C 43.0269,46.427 44.0269,47.0937 44.5,48.5C 42.9731,48.573 41.9731,47.9063 41.5,46.5 Z"/></g>
<g><path style="opacity:0.349" fill="#c6e5fe" d="M 142.5,45.5 C 142.573,47.0269 141.906,48.0269 140.5,48.5C 140.427,46.9731 141.094,45.9731 142.5,45.5 Z"/></g>
<g><path style="opacity:0.078" fill="#e5f3ff" d="M 399.5,43.5 C 400.451,44.9187 400.784,46.5853 400.5,48.5C 402.833,48.5 405.167,48.5 407.5,48.5C 405.052,49.4731 402.385,49.8064 399.5,49.5C 399.5,47.5 399.5,45.5 399.5,43.5 Z"/></g>
<g><path style="opacity:0.702" fill="#acd8fe" d="M 140.5,48.5 C 139.833,51.1667 138.167,52.8333 135.5,53.5C 136.833,51.5 138.5,49.8333 140.5,48.5 Z"/></g>
<g><path style="opacity:1" fill="#74befe" d="M 400.5,50.5 C 408.33,49.4949 411.496,52.8283 410,60.5C 405.162,66.0359 400.829,65.7026 397,59.5C 396.333,57.8333 396.333,56.1667 397,54.5C 398.376,53.2949 399.542,51.9616 400.5,50.5 Z"/></g>
<g><path style="opacity:0.918" fill="#b5dbfe" d="M 134.5,53.5 C 134.389,54.1174 134.056,54.6174 133.5,55C 131.19,55.4966 128.857,55.6633 126.5,55.5C 129.003,54.6295 131.67,53.9628 134.5,53.5 Z"/></g>
<g><path style="opacity:0.714" fill="#aad6fe" d="M 250.5,49.5 C 251.109,52.8784 249.776,54.8784 246.5,55.5C 248.29,53.7278 249.623,51.7278 250.5,49.5 Z"/></g>
<g><path style="opacity:0.737" fill="#a2d3fe" d="M 387.5,54.5 C 387.56,53.9569 387.893,53.6236 388.5,53.5C 388.833,55 389.167,56.5 389.5,58C 389.431,59.9855 388.765,61.4855 387.5,62.5C 388.767,59.728 388.767,57.0613 387.5,54.5 Z"/></g>
<g><path style="opacity:0.71" fill="#c1e2fe" d="M 107.5,54.5 C 107.179,56.0481 106.179,56.7148 104.5,56.5C 105.29,55.5987 106.29,54.9321 107.5,54.5 Z"/></g>
<g><path style="opacity:0.271" fill="#dbeffe" d="M 4.5,58.5 C 6.78121,58.0773 8.44787,58.744 9.5,60.5C 7.6943,59.9759 6.02763,59.3092 4.5,58.5 Z"/></g>
<g><path style="opacity:0.318" fill="#cce9fe" d="M 66.5,58.5 C 64.7056,59.2329 63.0389,60.2329 61.5,61.5C 61.5,60.5 61.5,59.5 61.5,58.5C 63.1667,58.5 64.8333,58.5 66.5,58.5 Z"/></g>
<g><path style="opacity:0.592" fill="#cae7fe" d="M 41.5,60.5 C 42.8333,61.1667 43.8333,62.1667 44.5,63.5C 42.5,63.5 41.5,62.5 41.5,60.5 Z"/></g>
<g><path style="opacity:0.239" fill="#dbeeff" d="M 28.5,62.5 C 28.1667,63.5 27.5,64.1667 26.5,64.5C 26.5,63.1667 27.1667,62.5 28.5,62.5 Z"/></g>
<g><path style="opacity:0.706" fill="#8accfe" d="M 102.5,56.5 C 102.5,58.5 102.5,60.5 102.5,62.5C 116.579,62.8151 130.579,62.4818 144.5,61.5C 130.539,63.4828 116.206,64.1495 101.5,63.5C 101.198,60.9407 101.532,58.6074 102.5,56.5 Z"/></g>
<g><path style="opacity:0.706" fill="#91cefe" d="M 153.5,56.5 C 153.5,58.5 153.5,60.5 153.5,62.5C 159.833,62.5 166.167,62.5 172.5,62.5C 172.5,60.5 172.5,58.5 172.5,56.5C 173.468,58.6074 173.802,60.9407 173.5,63.5C 166.5,63.5 159.5,63.5 152.5,63.5C 152.198,60.9407 152.532,58.6074 153.5,56.5 Z"/></g>
<g><path style="opacity:0.706" fill="#8bccfe" d="M 176.5,56.5 C 176.5,58.5 176.5,60.5 176.5,62.5C 182.833,62.5 189.167,62.5 195.5,62.5C 195.5,60.5 195.5,58.5 195.5,56.5C 196.468,58.6074 196.802,60.9407 196.5,63.5C 189.5,63.5 182.5,63.5 175.5,63.5C 175.198,60.9407 175.532,58.6074 176.5,56.5 Z"/></g>
<g><path style="opacity:0.706" fill="#88cbfe" d="M 336.5,56.5 C 336.5,58.5 336.5,60.5 336.5,62.5C 343.167,62.5 349.833,62.5 356.5,62.5C 356.5,60.5 356.5,58.5 356.5,56.5C 357.468,58.6074 357.802,60.9407 357.5,63.5C 350.167,63.5 342.833,63.5 335.5,63.5C 335.198,60.9407 335.532,58.6074 336.5,56.5 Z"/></g>
<g><path style="opacity:0.576" fill="#c1e2fe" d="M 44.5,63.5 C 45.9063,63.9731 46.573,64.9731 46.5,66.5C 45.0937,66.0269 44.427,65.0269 44.5,63.5 Z"/></g>
<g><path style="opacity:0.133" fill="#e3f2fe" d="M 26.5,64.5 C 26.1667,65.5 25.5,66.1667 24.5,66.5C 24.5,65.1667 25.1667,64.5 26.5,64.5 Z"/></g>
<g><path style="opacity:0.392" fill="#c0e2fe" d="M 281.5,66.5 C 281.573,68.0269 280.906,69.0269 279.5,69.5C 279.427,67.9731 280.094,66.9731 281.5,66.5 Z"/></g>
<g><path style="opacity:0.51" fill="#bae0fe" d="M 32.5,74.5 C 31.8333,73.5 31.1667,72.5 30.5,71.5C 30.7828,70.7109 31.2828,70.0442 32,69.5C 32.4935,71.1341 32.6602,72.8008 32.5,74.5 Z"/></g>
<g><path style="opacity:0.114" fill="#dff0fe" d="M 39.5,71.5 C 41.2589,71.0461 43.2589,71.0461 45.5,71.5C 43.6112,72.7416 41.6112,72.7416 39.5,71.5 Z"/></g>
</svg>
